<svg xmlns="http://www.w3.org/2000/svg" width="127" height="122" viewBox="0 0 127 122">
  <metadata><?xpacket begin="﻿" id="W5M0MpCehiHzreSzNTczkc9d"?>
<x:xmpmeta xmlns:x="adobe:ns:meta/" x:xmptk="Adobe XMP Core 5.6-c142 79.160924, 2017/07/13-01:06:39        ">
   <rdf:RDF xmlns:rdf="http://www.w3.org/1999/02/22-rdf-syntax-ns#">
      <rdf:Description rdf:about=""/>
   </rdf:RDF>
</x:xmpmeta>
                                                                                                    
                                                                                                    
                                                                                                    
                                                                                                    
                                                                                                    
                                                                                                    
                                                                                                    
                                                                                                    
                                                                                                    
                                                                                                    
                                                                                                    
                                                                                                    
                                                                                                    
                                                                                                    
                                                                                                    
                                                                                                    
                                                                                                    
                                                                                                    
                                                                                                    
                                                                                                    
                           
<?xpacket end="w"?></metadata>
<defs>
    <style>
      .cls-1 {
        fill: #f5b140;
        fill-rule: evenodd;
      }
    </style>
  </defs>
  <path class="cls-1" d="M62.585,57.961A4.76,4.76,0,1,0,57.826,62.7,4.748,4.748,0,0,0,62.585,57.961Zm-6.723,0a1.973,1.973,0,1,1,1.973,1.967A1.97,1.97,0,0,1,55.862,57.961ZM64.124,2a59.5,59.5,0,1,0,59.71,59.5A59.605,59.605,0,0,0,64.124,2ZM85.657,69.036l-1.055.589a3.052,3.052,0,0,0-1.528,3.229L83.3,74.04a3.063,3.063,0,0,1-2.844,3.615l-1.209.067a3.052,3.052,0,0,0-2.786,2.246l-0.319,1.166A3.082,3.082,0,0,1,72,83.159L70.875,82.7a3.084,3.084,0,0,0-3.492.819l-0.793.907a3.073,3.073,0,0,1-4.6.038l-0.8-.9a3.074,3.074,0,0,0-3.5-.771l-1.112.472A3.069,3.069,0,0,1,52.4,81.308L52.06,80.151a3.083,3.083,0,0,0-2.825-2.208L48.026,77.9a3.066,3.066,0,0,1-2.9-3.567l0.2-1.186a3.052,3.052,0,0,0-1.577-3.21l-1.064-.569a3.063,3.063,0,0,1-1.064-4.473l0.7-.983a3.061,3.061,0,0,0-.029-3.576l-0.716-.973a3.054,3.054,0,0,1,.987-4.483l1.054-.588a3.052,3.052,0,0,0,1.529-3.229l-0.222-1.186a3.063,3.063,0,0,1,2.844-3.615l1.209-.067a3.053,3.053,0,0,0,2.786-2.246l0.319-1.166a3.083,3.083,0,0,1,4.141-2.024l1.122,0.463a3.083,3.083,0,0,0,3.492-.819l0.793-.906a3.074,3.074,0,0,1,4.6-.039l0.8,0.9a3.072,3.072,0,0,0,3.5.771l1.113-.472a3.068,3.068,0,0,1,4.169,1.957l0.339,1.157a3.082,3.082,0,0,0,2.825,2.208l1.209,0.048a3.065,3.065,0,0,1,2.9,3.567l-0.2,1.186a3.052,3.052,0,0,0,1.577,3.21l1.064,0.568a3.063,3.063,0,0,1,1.064,4.473L85.9,60a3.06,3.06,0,0,0,.029,3.576l0.716,0.973A3.05,3.05,0,0,1,85.657,69.036ZM71.078,53.575a1.167,1.167,0,0,0-1.635.154L56.955,68.719a1.159,1.159,0,0,0,1.79,1.475L71.233,55.2A1.157,1.157,0,0,0,71.078,53.575ZM70.372,61.2a4.743,4.743,0,1,0,4.759,4.743A4.748,4.748,0,0,0,70.372,61.2Zm0,6.709a1.967,1.967,0,1,1,1.974-1.967A1.97,1.97,0,0,1,70.372,67.909Z"/>
</svg>
