<svg xmlns="http://www.w3.org/2000/svg" width="127" height="122" viewBox="0 0 127 122">
  <metadata><?xpacket begin="﻿" id="W5M0MpCehiHzreSzNTczkc9d"?>
<x:xmpmeta xmlns:x="adobe:ns:meta/" x:xmptk="Adobe XMP Core 5.6-c142 79.160924, 2017/07/13-01:06:39        ">
   <rdf:RDF xmlns:rdf="http://www.w3.org/1999/02/22-rdf-syntax-ns#">
      <rdf:Description rdf:about=""/>
   </rdf:RDF>
</x:xmpmeta>
                                                                                                    
                                                                                                    
                                                                                                    
                                                                                                    
                                                                                                    
                                                                                                    
                                                                                                    
                                                                                                    
                                                                                                    
                                                                                                    
                                                                                                    
                                                                                                    
                                                                                                    
                                                                                                    
                                                                                                    
                                                                                                    
                                                                                                    
                                                                                                    
                                                                                                    
                                                                                                    
                           
<?xpacket end="w"?></metadata>
<defs>
    <style>
      .cls-1 {
        fill: #fdb915;
        fill-rule: evenodd;
      }
    </style>
  </defs>
  <path class="cls-1" d="M102.3,46.074V29.905H77.857V45.111q0.167,0.468.3,0.963H102.3Zm-6.49-14.552h4.867v1.617H95.814V31.522Zm-6.545,0h4.922v1.617H89.269V31.522Zm0,4.851h8.167V37.99H89.269V36.373Zm0,3.234h11.412v1.617H89.269V39.607Zm0,3.234h11.412v1.617H89.269V42.84Zm-9.79-2.425a4.093,4.093,0,0,1,4.111-4.042,2.426,2.426,0,1,1,0-4.851,2.425,2.425,0,1,1,0,4.851,4.054,4.054,0,0,1,4.057,4.042v0.809H79.48V40.415Zm0,2.425h8.167v1.617H79.48V42.84ZM83.59,37.99a2.525,2.525,0,0,0-2.34,1.617h4.635A2.438,2.438,0,0,0,83.59,37.99Zm0-4.851a0.81,0.81,0,1,0,0,1.617A0.808,0.808,0,1,0,83.59,33.139ZM63.35,2a59.5,59.5,0,1,0,59.71,59.5A59.605,59.605,0,0,0,63.35,2Zm9.876,82.84v3.578H53.474V84.84s-4.06-1.217-6.432-2.03l0.731-5.462a4.569,4.569,0,0,1,2.616-3.5l1.763-.879a0.679,0.679,0,0,1,.8.374,31.927,31.927,0,0,0,10.4,7.914,31.929,31.929,0,0,0,10.4-7.914,0.68,0.68,0,0,1,.8-0.374l1.763,0.879a4.57,4.57,0,0,1,2.615,3.5l0.73,5.462C77.286,83.623,73.226,84.84,73.226,84.84Zm30.7-37.149H78.485a15.847,15.847,0,0,1-.326,5.784,10.056,10.056,0,0,1,1.2,4.031c0,2.42-2.037,2.855-2.037,4.469s1.568,2.415,1.568,4.311-1.511,2.813-2,4.24a9.435,9.435,0,0,0,.037,2.609s-1.6-2.63-.757-5.045-0.135-2.675-.9-3.73c-0.041-.057-0.081-0.115-0.119-0.173a5.8,5.8,0,0,1-2.39,1.837l-4.332,1.8a12.1,12.1,0,0,1-11.34,4.26,1.786,1.786,0,0,0,.87-1.532V67.7l-4.028-1.672a5.8,5.8,0,0,1-2.39-1.837c-0.038.058-.077,0.115-0.119,0.173-0.763,1.055-1.74,1.315-.9,3.73s-0.757,5.045-.757,5.045a9.406,9.406,0,0,0,.037-2.609c-0.491-1.426-2-2.344-2-4.24s1.568-2.7,1.568-4.31-2.038-2.049-2.038-4.469a10.06,10.06,0,0,1,1.2-4.031C45.8,41.659,56.068,36.529,58.861,36.529a9.722,9.722,0,0,1,4.489.894,9.722,9.722,0,0,1,4.489-.894c1.618,0,5.743,1.722,8.4,5.468V28.289h27.692v19.4ZM74.816,56.3A4.071,4.071,0,0,1,73.71,54.13c-4.1-1.2-9.935-3.552-10.337-7.343a3.954,3.954,0,0,1-.023-0.417,3.954,3.954,0,0,1-.023.417c-0.4,3.791-6.235,6.147-10.337,7.343A4.078,4.078,0,0,1,51.885,56.3a2.155,2.155,0,0,0-.685,2.246,3.149,3.149,0,0,0,.282.708,4.841,4.841,0,0,1,.5,4.1,4.952,4.952,0,0,0,2.28,1.907l5.354,2.223,0.447,0.186a8.585,8.585,0,0,0,6.585,0l0.447-.186,5.354-2.223a4.952,4.952,0,0,0,2.279-1.907,4.839,4.839,0,0,1,.5-4.1,3.155,3.155,0,0,0,.282-0.706A2.156,2.156,0,0,0,74.816,56.3Zm-16.852.807a0.9,0.9,0,0,1-1.8,0V56.211a0.9,0.9,0,0,1,1.8,0v0.894Zm9.483,6.108a8.348,8.348,0,0,1-8.192,0,0.9,0.9,0,1,1,1.01-1.479,6.614,6.614,0,0,0,6.172,0A0.9,0.9,0,1,1,67.446,63.213Zm3.086-6.108a0.9,0.9,0,0,1-1.8,0V56.211a0.9,0.9,0,0,1,1.8,0v0.894Z"/>
</svg>
