<svg xmlns="http://www.w3.org/2000/svg" width="119" height="119" viewBox="0 0 119 119">
  <metadata><?xpacket begin="﻿" id="W5M0MpCehiHzreSzNTczkc9d"?>
<x:xmpmeta xmlns:x="adobe:ns:meta/" x:xmptk="Adobe XMP Core 5.6-c142 79.160924, 2017/07/13-01:06:39        ">
   <rdf:RDF xmlns:rdf="http://www.w3.org/1999/02/22-rdf-syntax-ns#">
      <rdf:Description rdf:about=""/>
   </rdf:RDF>
</x:xmpmeta>
                                                                                                    
                                                                                                    
                                                                                                    
                                                                                                    
                                                                                                    
                                                                                                    
                                                                                                    
                                                                                                    
                                                                                                    
                                                                                                    
                                                                                                    
                                                                                                    
                                                                                                    
                                                                                                    
                                                                                                    
                                                                                                    
                                                                                                    
                                                                                                    
                                                                                                    
                                                                                                    
                           
<?xpacket end="w"?></metadata>
<defs>
    <style>
      .cls-1 {
        fill: #ffab3e;
        fill-rule: evenodd;
      }
    </style>
  </defs>
  <path class="cls-1" d="M71.24,65.156h2.169V62.995H71.24v2.161ZM63.648,55.43a10.811,10.811,0,0,1-4.338-.909v5.231H76.663v-6.3a19.354,19.354,0,0,0-4.738-1.86A10.84,10.84,0,0,1,63.648,55.43ZM59.71,0a59.5,59.5,0,1,0,59.71,59.5A59.605,59.605,0,0,0,59.71,0ZM33.263,82l-4.521.644-0.774-.626,0.917-4.57,0.216-.341,4.083-.814,0.767-3.821,3.834-.765,0.855-4.258,4.332-5.188,4.639,4.433ZM71.24,78.878l-2.388,3.57,2.169,3.242-2.169,3.242L71.24,92.5v0.393l-2.711,3.6H67.444l-2.711-3.6V71.64H71.24v7.237Zm8.676-15.342-7.953,5.944H64.01l-7.953-5.944V52.327a10.754,10.754,0,0,1-3.2-6.7c-0.276-.091-0.541-0.175-0.784-0.244L47.6,49.841l6.289,6.267v8.508l2.681,2-6.937-.986L44.06,60.307,42.614,50.224l8.43-8.4a20.145,20.145,0,0,1,2.017.48,10.846,10.846,0,0,1,21.432,2.32,10.729,10.729,0,0,1-.813,4.095,22.659,22.659,0,0,1,6.236,2.938V63.535ZM66.9,65.156h2.169V62.995H66.9v2.161Zm-20.837-9.2L47.6,57.482l1.533-1.528L47.6,54.426Zm16.5,9.2h2.169V62.995H62.564v2.161Zm-11.9-4.617L52.2,59.012l-1.534-1.529L49.132,59.01ZM71.536,48.2a8.555,8.555,0,0,0,.788-3.579A8.676,8.676,0,0,0,55.13,43.011a21.18,21.18,0,0,1,6.177,3.733,24.513,24.513,0,0,0-3.468,1.388,17.969,17.969,0,0,0-2.632-1.548,8.631,8.631,0,0,0,2.317,4.156,21.551,21.551,0,0,1,10.463-2.875A19.447,19.447,0,0,1,71.536,48.2Zm-10.812,4.55A8.617,8.617,0,0,0,69.3,51.165c-0.429-.036-0.869-0.058-1.318-0.058A17.767,17.767,0,0,0,60.724,52.752Z"/>
</svg>
