<svg xmlns="http://www.w3.org/2000/svg" width="127" height="122" viewBox="0 0 127 122">
  <metadata><?xpacket begin="﻿" id="W5M0MpCehiHzreSzNTczkc9d"?>
<x:xmpmeta xmlns:x="adobe:ns:meta/" x:xmptk="Adobe XMP Core 5.6-c142 79.160924, 2017/07/13-01:06:39        ">
   <rdf:RDF xmlns:rdf="http://www.w3.org/1999/02/22-rdf-syntax-ns#">
      <rdf:Description rdf:about=""/>
   </rdf:RDF>
</x:xmpmeta>
                                                                                                    
                                                                                                    
                                                                                                    
                                                                                                    
                                                                                                    
                                                                                                    
                                                                                                    
                                                                                                    
                                                                                                    
                                                                                                    
                                                                                                    
                                                                                                    
                                                                                                    
                                                                                                    
                                                                                                    
                                                                                                    
                                                                                                    
                                                                                                    
                                                                                                    
                                                                                                    
                           
<?xpacket end="w"?></metadata>
<defs>
    <style>
      .cls-1 {
        fill: #d59700;
        fill-rule: evenodd;
      }
    </style>
  </defs>
  <path class="cls-1" d="M63.29,2A59.5,59.5,0,1,0,123,61.5,59.605,59.605,0,0,0,63.29,2ZM55.679,62.31a0.932,0.932,0,0,1,.2.8,4.652,4.652,0,0,0-.106.971V74.694a0.94,0.94,0,0,1-1.762.453L48.182,64.642a15.018,15.018,0,1,1,28.262-7.119c0,0.24-.018.475-0.039,0.711l-0.022.285a0.939,0.939,0,0,1-.938.876H75.183a0.946,0.946,0,0,1-.663-0.273L74.291,58.9a4.669,4.669,0,0,0-3.323-1.373h-1.2a0.939,0.939,0,0,1-.934-0.832,7.5,7.5,0,0,0-14.944.832A7.371,7.371,0,0,0,55.679,62.31ZM65.35,81.383L62.233,87a0.942,0.942,0,0,1-1.644,0l-3.461-6.238a0.938,0.938,0,0,1,1.245-1.289,4.67,4.67,0,0,0,2.1.519h4.056A0.937,0.937,0,0,1,65.35,81.383ZM80.2,75.312a2.817,2.817,0,0,1-2.819,2.809H60.471a2.817,2.817,0,0,1-2.819-2.809V64.077a2.817,2.817,0,0,1,2.819-2.809h2.98a0.952,0.952,0,0,0,.664-0.274l0.778-.776a2.806,2.806,0,0,1,1.993-.823h4.081a2.807,2.807,0,0,1,1.993.823l0.778,0.776a0.952,0.952,0,0,0,.664.274h2.98A2.817,2.817,0,0,1,80.2,64.077V75.312ZM68.928,64.077a5.618,5.618,0,1,0,5.638,5.618A5.634,5.634,0,0,0,68.928,64.077Zm0,9.363a3.745,3.745,0,1,1,3.758-3.745A3.752,3.752,0,0,1,68.928,73.44Z"/>
</svg>
